<svg width="217" height="80" viewBox="0 0 217 80" fill="none" xmlns="http://www.w3.org/2000/svg">
<path d="M75.1145 28.694H82.234L79.4225 42.2527H79.5132L94.2056 28.694H103.638L88.0838 42.026L98.0148 61.0718H89.9884L82.5968 46.5154L77.654 50.8233L75.5226 61.0718H68.4032L75.1145 28.694ZM103.986 44.7468C104.198 43.2655 104.651 42.0411 105.346 41.0737C106.042 40.0761 106.888 39.275 107.886 38.6703C108.884 38.0657 110.002 37.6425 111.242 37.4006C112.481 37.1285 113.766 36.9925 115.096 36.9925C116.154 36.9925 117.258 37.0681 118.406 37.2192C119.555 37.3704 120.613 37.6727 121.581 38.1262C122.548 38.5494 123.334 39.1691 123.939 39.9854C124.574 40.7714 124.876 41.8295 124.846 43.1597C124.846 44.2782 124.679 45.5933 124.347 47.1049L122.261 56.5371C122.14 56.9603 122.049 57.4894 121.989 58.1242C121.959 58.7288 121.944 59.2579 121.944 59.7114C121.944 60.1044 122.019 60.5578 122.17 61.0718H115.731V58.7591C114.854 59.7567 113.781 60.4974 112.511 60.9811C111.242 61.4346 109.927 61.6613 108.566 61.6613C107.296 61.6613 106.178 61.495 105.21 61.1625C104.273 60.8299 103.487 60.3916 102.852 59.8474C102.218 59.273 101.749 58.623 101.447 57.8975C101.144 57.1417 100.993 56.3557 100.993 55.5394C100.993 53.2721 101.764 51.4582 103.306 50.0978C104.878 48.7374 107.085 47.8909 109.927 47.5584C111.438 47.377 112.753 47.2409 113.872 47.1502C114.99 47.0595 115.912 46.9235 116.638 46.7421C117.394 46.5305 117.953 46.2433 118.316 45.8805C118.679 45.4875 118.86 44.9131 118.86 44.1573C118.86 43.5527 118.724 43.069 118.452 42.7062C118.18 42.3434 117.832 42.0562 117.409 41.8446C117.016 41.633 116.577 41.497 116.094 41.4365C115.64 41.3458 115.202 41.3005 114.779 41.3005C113.63 41.3005 112.602 41.5877 111.695 42.162C110.788 42.7062 110.229 43.5678 110.017 44.7468H103.986ZM117.59 49.8257C116.774 50.3094 115.897 50.6117 114.96 50.7326C114.023 50.8233 113.086 50.8989 112.149 50.9594C111.544 51.0198 110.954 51.1257 110.38 51.2768C109.806 51.3977 109.292 51.5942 108.838 51.8663C108.415 52.1384 108.067 52.5163 107.795 53C107.523 53.4535 107.387 54.043 107.387 54.7685C107.387 55.6452 107.735 56.3103 108.43 56.7638C109.156 57.187 109.987 57.3987 110.924 57.3987C111.922 57.3987 112.753 57.2475 113.418 56.9452C114.114 56.6126 114.688 56.2045 115.141 55.7208C115.625 55.2069 116.003 54.6325 116.275 53.9976C116.547 53.3628 116.774 52.7279 116.955 52.0931L117.59 49.8257ZM131.658 37.6273H137.78L136.827 41.8446L136.918 41.9353C137.644 40.3028 138.732 39.0784 140.183 38.2622C141.664 37.4157 143.267 36.9925 144.99 36.9925C145.655 36.9925 146.32 37.0378 146.985 37.1285L145.67 43.3864C145.216 43.2957 144.763 43.205 144.31 43.1143C143.856 43.0236 143.403 42.9783 142.949 42.9783C141.71 42.9783 140.652 43.1899 139.775 43.6132C138.928 44.0364 138.203 44.6108 137.598 45.3363C137.024 46.0619 136.555 46.8933 136.192 47.8304C135.86 48.7374 135.588 49.6897 135.376 50.6873L133.2 61.0718H126.806L131.658 37.6273ZM147.65 44.7468C147.862 43.2655 148.315 42.0411 149.011 41.0737C149.706 40.0761 150.553 39.275 151.55 38.6703C152.548 38.0657 153.666 37.6425 154.906 37.4006C156.145 37.1285 157.43 36.9925 158.76 36.9925C159.818 36.9925 160.922 37.0681 162.071 37.2192C163.22 37.3704 164.278 37.6727 165.245 38.1262C166.212 38.5494 166.998 39.1691 167.603 39.9854C168.238 40.7714 168.54 41.8295 168.51 43.1597C168.51 44.2782 168.344 45.5933 168.011 47.1049L165.925 56.5371C165.804 56.9603 165.714 57.4894 165.653 58.1242C165.623 58.7288 165.608 59.2579 165.608 59.7114C165.608 60.1044 165.683 60.5578 165.835 61.0718H159.395V58.7591C158.519 59.7567 157.445 60.4974 156.176 60.9811C154.906 61.4346 153.591 61.6613 152.23 61.6613C150.961 61.6613 149.842 61.495 148.875 61.1625C147.938 60.8299 147.152 60.3916 146.517 59.8474C145.882 59.273 145.413 58.623 145.111 57.8975C144.809 57.1417 144.657 56.3557 144.657 55.5394C144.657 53.2721 145.428 51.4582 146.97 50.0978C148.542 48.7374 150.749 47.8909 153.591 47.5584C155.102 47.377 156.417 47.2409 157.536 47.1502C158.655 47.0595 159.577 46.9235 160.302 46.7421C161.058 46.5305 161.617 46.2433 161.98 45.8805C162.343 45.4875 162.524 44.9131 162.524 44.1573C162.524 43.5527 162.388 43.069 162.116 42.7062C161.844 42.3434 161.496 42.0562 161.073 41.8446C160.68 41.633 160.242 41.497 159.758 41.4365C159.305 41.3458 158.866 41.3005 158.443 41.3005C157.294 41.3005 156.266 41.5877 155.359 42.162C154.452 42.7062 153.893 43.5678 153.682 44.7468H147.65ZM161.254 49.8257C160.438 50.3094 159.562 50.6117 158.624 50.7326C157.687 50.8233 156.75 50.8989 155.813 50.9594C155.208 51.0198 154.619 51.1257 154.044 51.2768C153.47 51.3977 152.956 51.5942 152.502 51.8663C152.079 52.1384 151.732 52.5163 151.46 53C151.187 53.4535 151.051 54.043 151.051 54.7685C151.051 55.6452 151.399 56.3103 152.094 56.7638C152.82 57.187 153.651 57.3987 154.588 57.3987C155.586 57.3987 156.417 57.2475 157.083 56.9452C157.778 56.6126 158.352 56.2045 158.806 55.7208C159.289 55.2069 159.667 54.6325 159.939 53.9976C160.211 53.3628 160.438 52.7279 160.62 52.0931L161.254 49.8257ZM182.623 33.9996H176.138L177.317 28.694H183.802L182.623 33.9996ZM166.117 63.8833C166.51 63.9135 166.903 63.9286 167.296 63.9286C167.658 63.9589 168.036 63.974 168.429 63.974C168.883 63.974 169.245 63.8077 169.518 63.4752C169.79 63.1729 170.016 62.795 170.198 62.3415C170.379 61.888 170.515 61.4346 170.606 60.9811C170.697 60.4974 170.787 60.1044 170.878 59.8021L175.503 37.6273H181.943L176.818 61.888C176.546 63.1275 176.214 64.2158 175.821 65.153C175.428 66.0902 174.899 66.8611 174.234 67.4657C173.569 68.0703 172.752 68.5238 171.785 68.8261C170.818 69.1284 169.608 69.2796 168.157 69.2796C167.643 69.2796 167.129 69.2494 166.615 69.1889C166.071 69.1284 165.542 69.0831 165.028 69.0529L166.117 63.8833ZM194.358 33.9996H187.874L189.053 28.694H195.537L194.358 33.9996ZM187.148 37.6273H193.633L188.644 61.0718H182.205L187.148 37.6273Z" fill="#EFEFF0"/>
<rect x="141.378" width="56" height="23" fill="#D2EA41"/>
<path d="M146.303 21.0203C146.13 21.0203 145.967 20.9947 145.813 20.9435C145.666 20.8923 145.541 20.8156 145.439 20.7132C145.337 20.6173 145.263 20.4957 145.218 20.3486C145.193 20.2719 145.18 20.1855 145.18 20.0896C145.18 20.0064 145.19 19.9201 145.209 19.8305C145.279 19.4659 145.481 19.1748 145.813 18.9574C146.12 18.7591 146.45 18.6599 146.802 18.6599C146.968 18.6599 147.128 18.6855 147.281 18.7367C147.435 18.7879 147.566 18.8614 147.675 18.9574C147.784 19.0533 147.86 19.1748 147.905 19.322C147.931 19.3987 147.943 19.4851 147.943 19.581C147.943 19.6578 147.934 19.7409 147.915 19.8305C147.844 20.2079 147.64 20.5021 147.301 20.7132C146.994 20.9179 146.661 21.0203 146.303 21.0203ZM149.402 21.0203C149.031 21.0203 148.743 20.9179 148.538 20.7132C148.366 20.5469 148.279 20.3454 148.279 20.1088C148.279 20.0192 148.289 19.9265 148.308 19.8305C148.378 19.4659 148.58 19.1748 148.913 18.9574C149.22 18.7591 149.549 18.6599 149.901 18.6599C150.259 18.6599 150.55 18.7591 150.774 18.9574C150.953 19.1173 151.043 19.3252 151.043 19.581C151.043 19.6578 151.033 19.7409 151.014 19.8305C150.943 20.2079 150.739 20.5021 150.4 20.7132C150.093 20.9179 149.76 21.0203 149.402 21.0203ZM158.459 14.3998C158.709 14.7516 159.122 14.9275 159.697 14.9275C160.023 14.9275 160.276 15.0426 160.455 15.2729C160.641 15.5032 160.698 15.7814 160.628 16.1077C160.558 16.4339 160.382 16.7122 160.1 16.9424C159.825 17.1727 159.524 17.2878 159.198 17.2878H159.169C158.44 17.2815 157.82 17.1695 157.308 16.952C156.784 16.7281 156.368 16.4179 156.061 16.0213C155.747 15.6247 155.549 15.1546 155.466 14.6109C155.389 14.0672 155.418 13.4723 155.552 12.8262L156.281 9.40082C155.706 9.40082 155.207 9.57353 154.785 9.91895C154.369 10.2644 154.081 10.8241 153.921 11.5981L152.712 17.2878H146.878C146.149 17.2878 145.519 17.1919 144.988 17C144.464 16.8081 144.041 16.5203 143.722 16.1365C143.402 15.7527 143.2 15.2793 143.117 14.7164C143.028 14.1471 143.063 13.4851 143.223 12.7303L144.173 8.22065H148.039L147.54 10.581H146.408L145.957 12.7303C145.791 13.5043 145.839 14.064 146.101 14.4094C146.376 14.7548 146.802 14.9275 147.377 14.9275H150.467L151.177 11.5981C151.337 10.8433 151.583 10.1812 151.916 9.61191C152.248 9.04261 152.655 8.56607 153.134 8.18227C153.614 7.80487 154.158 7.52022 154.765 7.32832C155.379 7.13642 156.051 7.04047 156.78 7.04047H159.534L158.296 12.8646C158.149 13.5362 158.204 14.048 158.459 14.3998ZM161.962 17.2878H159.208L159.707 14.9179H162.461C162.864 14.9179 163.244 14.8507 163.602 14.7164C163.961 14.5821 164.28 14.3934 164.562 14.1503C164.843 13.9072 165.083 13.6162 165.281 13.2772C165.48 12.9382 165.62 12.5639 165.704 12.1546C165.761 11.8859 165.79 11.6332 165.79 11.3966C165.79 10.8912 165.665 10.4755 165.416 10.1492C165.038 9.65029 164.443 9.40082 163.631 9.40082L163.247 11.2047H160.494L161.261 7.61617C162.144 7.23237 163.103 7.04047 164.14 7.04047C164.939 7.04047 165.646 7.15561 166.26 7.38589C166.881 7.60977 167.383 7.9424 167.767 8.38376C168.15 8.81873 168.406 9.35285 168.534 9.98611C168.592 10.2612 168.62 10.5554 168.62 10.8688C168.62 11.2718 168.573 11.7004 168.477 12.1546C168.304 12.9733 168.016 13.7025 167.613 14.3422C167.21 14.9819 166.724 15.5192 166.155 15.9542C165.592 16.3827 164.952 16.7122 164.236 16.9424C163.519 17.1727 162.761 17.2878 161.962 17.2878ZM160.091 21.0203C159.918 21.0203 159.758 20.9947 159.611 20.9435C159.464 20.8923 159.339 20.8156 159.237 20.7132C159.128 20.6173 159.051 20.4957 159.006 20.3486C158.981 20.2719 158.968 20.1855 158.968 20.0896C158.968 20.0064 158.978 19.9201 158.997 19.8305C159.067 19.4659 159.269 19.1748 159.601 18.9574C159.908 18.7591 160.241 18.6599 160.599 18.6599C160.759 18.6599 160.916 18.6855 161.069 18.7367C161.223 18.7879 161.354 18.8614 161.463 18.9574C161.648 19.1173 161.741 19.3252 161.741 19.581C161.741 19.6578 161.731 19.7409 161.712 19.8305C161.667 20.0288 161.591 20.2015 161.482 20.3486C161.373 20.4957 161.242 20.6173 161.088 20.7132C160.941 20.8156 160.778 20.8923 160.599 20.9435C160.426 20.9947 160.257 21.0203 160.091 21.0203ZM172.238 17.2783H168.678L171.355 4.67053H173.936L171.758 14.9179H172.737L172.238 17.2783ZM179.942 17.2878C179.258 17.2815 178.67 17.1823 178.177 16.9904C178.036 17.4702 177.844 17.9211 177.601 18.3433C177.288 18.887 176.891 19.3572 176.412 19.7537C175.938 20.1503 175.388 20.4606 174.761 20.6844C174.154 20.9019 173.479 21.0139 172.737 21.0203L173.236 18.6599C173.811 18.6599 174.301 18.484 174.704 18.1322C175.1 17.7868 175.372 17.2783 175.519 16.6066L176.642 11.3102H175.692L176.095 9.40082H179.799L179.069 12.8646C178.922 13.5362 178.977 14.048 179.232 14.3998C179.482 14.7516 179.895 14.9275 180.47 14.9275C180.796 14.9275 181.052 15.0426 181.238 15.2729C181.423 15.5032 181.481 15.7814 181.411 16.1077C181.34 16.4339 181.164 16.7122 180.883 16.9424C180.601 17.1727 180.297 17.2878 179.971 17.2878H179.942ZM184.452 17.2878H179.971L180.47 14.9275H184.951C185.354 14.9275 185.735 14.8603 186.093 14.726C186.451 14.5853 186.771 14.3966 187.052 14.1599C187.334 13.9168 187.574 13.6258 187.772 13.2868C187.97 12.9413 188.111 12.5639 188.194 12.1546C188.252 11.8923 188.28 11.6428 188.28 11.4062C188.28 10.9072 188.156 10.4882 187.906 10.1492C187.529 9.65029 186.934 9.40082 186.122 9.40082H183.368L182.792 7.04047L195.477 0.515927L194.843 3.49995L187.791 7.12683C188.859 7.30593 189.681 7.72491 190.257 8.38376C190.641 8.81873 190.897 9.35285 191.025 9.98611C191.082 10.2612 191.111 10.5554 191.111 10.8688C191.111 11.2718 191.063 11.7004 190.967 12.1546C190.788 12.9733 190.497 13.7025 190.094 14.3422C189.697 14.9819 189.214 15.5192 188.645 15.9542C188.076 16.3827 187.433 16.7122 186.716 16.9424C186.006 17.1727 185.252 17.2878 184.452 17.2878Z" fill="black"/>
<path d="M205.571 34.1875V30.9056H204.281V30.2937H207.585V30.9056H206.294V34.1875H205.571ZM208.128 34.1875V30.2937H208.723L210.425 33.1362H210.113L211.788 30.2937H212.383L212.388 34.1875H211.704L211.699 31.3673H211.843L210.419 33.7425H210.097L208.65 31.3673H208.817V34.1875H208.128Z" fill="#EFEFF0"/>
<path d="M59.598 43.2967C58.1315 42.6937 56.5893 42.1653 54.98 41.7126C50.4039 40.4047 45.3332 39.6841 40.0019 39.6841C34.6707 39.6841 29.6009 40.4047 25.0164 41.7126C23.4071 42.1653 21.8649 42.6928 20.3984 43.2967C20.1809 44.3777 20.0801 45.4923 20.0801 46.6405C20.0801 46.8244 20.0801 47.0009 20.0969 47.1857C21.3627 46.2886 22.7368 45.694 24.195 45.4429C24.6897 45.3588 25.2003 45.3168 25.7203 45.3168C32.3332 45.3168 37.7559 52.4917 38.3515 61.6522C38.3851 62.0545 38.4019 62.4653 38.4019 62.876C39.5165 63.1775 40.5891 63.3203 41.6038 63.3539V63.3455C41.6038 62.7761 41.6206 62.2141 41.6542 61.6522C42.2573 52.4917 47.68 45.3168 54.2854 45.3168C54.797 45.3168 55.2992 45.3588 55.8024 45.4429C57.2605 45.694 58.644 46.2895 59.9005 47.1857C59.9173 47.0009 59.9173 46.8254 59.9173 46.6405C59.9173 45.4923 59.8164 44.3777 59.5989 43.2967H59.598Z" fill="#0F1314"/>
<path d="M59.6008 41.9477C58.1296 41.3493 56.5875 40.8191 54.9818 40.3654C50.4021 39.0631 45.3304 38.3359 40.0038 38.3359C34.6772 38.3359 29.6046 39.0631 25.0174 40.3654C23.4117 40.82 21.8687 41.3493 20.3984 41.9477C20.1837 43.0305 20.0801 44.1507 20.0801 45.2943C20.0801 45.4763 20.0801 45.6574 20.0959 45.8394C21.3599 44.9461 22.7359 44.3477 24.1987 44.0975C24.6916 44.0144 25.2003 43.9687 25.7175 43.9687C32.3323 43.9687 37.7541 51.1473 38.3506 60.3096C38.3907 60.8697 38.4066 61.4298 38.4066 61.9983C38.4066 62.7405 38.3748 63.4751 38.3114 64.1939C38.8677 64.2471 39.4325 64.2695 40.0047 64.2695C40.577 64.2695 41.1417 64.2471 41.6981 64.1939C41.6346 63.4742 41.6029 62.7405 41.6029 61.9983C41.6029 61.4308 41.6188 60.8697 41.6589 60.3096C42.2554 51.1473 47.6772 43.9687 54.2845 43.9687C54.8017 43.9687 55.302 44.0144 55.8033 44.0975C57.2586 44.3477 58.6412 44.9451 59.9061 45.8394C59.9219 45.6574 59.9219 45.4763 59.9219 45.2943C59.9219 44.1507 59.8183 43.0305 59.6036 41.9477H59.6008Z" fill="white"/>
<path d="M44.1605 49.0567C46.3562 46.861 46.3562 43.3011 44.1605 41.1054C41.9648 38.9096 38.4048 38.9096 36.2091 41.1054C34.0134 43.3011 34.0134 46.861 36.2091 49.0567C38.4048 51.2525 41.9648 51.2525 44.1605 49.0567Z" fill="black"/>
<path d="M40.0005 40.7407C42.7198 40.7407 44.9247 42.9456 44.9247 45.6649C44.9247 46.1382 44.8538 46.5956 44.7296 47.0287C45.0395 46.3837 45.2178 45.6639 45.2178 44.9013C45.2178 42.182 43.0129 39.9771 40.2936 39.9771C38.0476 39.9771 36.1573 41.4819 35.5654 43.5374C36.3598 41.8851 38.0448 40.7416 40.0005 40.7416V40.7407Z" fill="#404040"/>
<path opacity="0.4" d="M43.8469 44.9015C43.8469 46.8646 42.2552 48.4562 40.2921 48.4562C38.3289 48.4562 36.7373 46.8646 36.7373 44.9015C36.7373 42.9383 38.3289 41.3467 40.2921 41.3467C42.2552 41.3467 43.8469 42.9383 43.8469 44.9015Z" fill="black"/>
<path d="M43.4865 44.9015C43.4865 46.6658 42.0564 48.0959 40.2921 48.0959C38.5278 48.0959 37.0977 46.6658 37.0977 44.9015C37.0977 43.1372 38.5278 41.707 40.2921 41.707C42.0564 41.707 43.4865 43.1372 43.4865 44.9015Z" fill="white"/>
<g style="mix-blend-mode:multiply" opacity="0.5">
<path d="M41.6973 64.1937C41.6339 63.4739 41.6021 62.7402 41.6021 61.9981C41.6021 61.9197 41.6096 61.844 41.6096 61.7656C41.2054 61.8384 40.7993 61.9085 40.3858 61.9514C39.807 62.0102 39.2292 62.0438 38.6429 62.0438C38.5636 62.0438 38.4852 62.0382 38.4058 62.0373C38.4049 62.7663 38.3741 63.4879 38.3115 64.1946C38.8679 64.2478 39.4327 64.2702 40.0049 64.2702C40.5771 64.2702 41.1419 64.2478 41.6983 64.1946L41.6973 64.1937Z" fill="#3A3A3A"/>
<path d="M21.9452 44.7899C21.9545 44.5276 21.9555 44.2644 21.9798 44.0067C22.0535 43.0396 22.2178 42.094 22.454 41.1782C21.7557 41.4219 21.0677 41.6748 20.3984 41.9474C20.1837 43.0303 20.0801 44.1505 20.0801 45.294C20.0801 45.4761 20.0801 45.6572 20.0959 45.8392C20.6878 45.421 21.3067 45.0737 21.9452 44.7899Z" fill="#3A3A3A"/>
</g>
<path d="M60.664 40.3001C58.9287 30.4685 50.3376 23.0005 40.0038 23.0005C29.6699 23.0005 21.0789 30.4685 19.3351 40.3001C19.1092 41.4988 19 42.7394 19 44.0043C19 44.205 19 44.4066 19.0168 44.6073C19.3099 55.3267 27.6498 64.0438 38.2189 64.924C38.8052 64.9829 39.4007 65.0081 40.0038 65.0081C40.6068 65.0081 41.2024 64.9829 41.7886 64.924C52.3577 64.0438 60.6883 55.3276 60.9824 44.6073C60.9992 44.4066 60.9992 44.205 60.9992 44.0043C60.9992 42.7384 60.8899 41.4978 60.664 40.3001ZM56.7163 44.0043C56.7163 52.6541 50.1537 59.7524 41.7466 60.6243C41.1679 60.6831 40.59 60.7168 40.0038 60.7168C39.4175 60.7168 38.8304 60.6831 38.26 60.6243C29.8454 59.7524 23.2829 52.6532 23.2829 44.0043C23.2829 43.5599 23.2997 43.1156 23.3417 42.6796C23.4509 41.2467 23.7441 39.8549 24.2052 38.548C26.4596 31.9938 32.6786 27.2918 40.0038 27.2918C47.329 27.2918 53.5396 31.9938 55.794 38.548C56.2551 39.8558 56.5482 41.2467 56.6575 42.6796C56.6995 43.1156 56.7163 43.5599 56.7163 44.0043Z" fill="white"/>
<g style="mix-blend-mode:multiply" opacity="0.3">
<path d="M57.1069 42.6075C57.1069 42.1632 57.0901 41.7188 57.0481 41.2829C56.9388 39.8499 56.6457 38.4581 56.1846 37.1512C53.9302 30.5971 47.7112 25.895 40.3944 25.895C33.0776 25.895 26.8502 30.5961 24.5949 37.1512C24.4016 37.7001 24.2448 38.2658 24.1113 38.8408C24.1431 38.7437 24.1701 38.6439 24.2037 38.5477C26.4582 31.9936 32.6771 27.2915 40.0023 27.2915C47.3275 27.2915 53.5381 31.9936 55.7925 38.5477C56.2537 39.8555 56.5468 41.2465 56.656 42.6794C56.698 43.1153 56.7148 43.5597 56.7148 44.004C56.7148 45.3212 56.5458 46.5964 56.2583 47.8258C56.7988 46.1828 57.1059 44.4325 57.1059 42.6075H57.1069Z" fill="#BBBBBB"/>
<path d="M42.1798 63.5276C41.5935 63.5864 40.998 63.6116 40.3949 63.6116C39.7919 63.6116 39.1963 63.5864 38.6101 63.5276C28.041 62.6473 19.7011 53.9303 19.4079 43.2109C19.3911 43.0092 19.3911 42.8085 19.3911 42.6078C19.3911 41.342 19.5004 40.1014 19.7263 38.9037C19.8009 38.4836 19.9046 38.0738 20.0035 37.6631C19.7319 38.5228 19.4948 39.3975 19.3351 40.3002C19.1092 41.4988 19 42.7395 19 44.0044C19 44.2051 19 44.4067 19.0168 44.6074C19.3099 55.3268 27.6498 64.0438 38.2189 64.9241C38.8052 64.9829 39.4007 65.0081 40.0038 65.0081C40.6068 65.0081 41.2024 64.9829 41.7886 64.9241C50.81 64.1727 58.1828 57.7035 60.3354 49.161C57.7655 57.0062 50.7036 62.8172 42.1788 63.5276H42.1798Z" fill="#BBBBBB"/>
</g>
<g opacity="0.2">
<path d="M24.1677 38.665C24.0688 38.9124 23.9652 39.157 23.8784 39.41C23.4172 40.7178 23.1241 42.1087 23.0149 43.5416C22.9729 43.9776 22.9561 44.4219 22.9561 44.8663C22.9561 53.5161 29.5186 60.6145 37.9341 61.4863C38.5035 61.5452 39.0907 61.5788 39.6779 61.5788C40.265 61.5788 40.8429 61.5452 41.4207 61.4863C47.9291 60.8114 53.3163 56.3969 55.4251 50.4281C53.1194 55.9572 47.9384 59.9834 41.7474 60.6257C41.1687 60.6845 40.5908 60.7181 40.0046 60.7181C39.4184 60.7181 38.8312 60.6845 38.2608 60.6257C29.8462 59.7538 23.2837 52.6545 23.2837 44.0056C23.2837 43.5613 23.3005 43.1169 23.3425 42.681C23.448 41.29 23.7309 39.9402 24.1687 38.666L24.1677 38.665Z" fill="white"/>
<path d="M60.6642 40.3001C58.9288 30.4685 50.3378 23.0005 40.0039 23.0005C30.8323 23.0005 23.0459 28.8881 20.1885 37.0833C23.2784 29.3418 30.8323 23.8621 39.6781 23.8621C50.012 23.8621 58.603 31.3301 60.3384 41.1618C60.5643 42.3604 60.6735 43.601 60.6735 44.8659C60.6735 45.0675 60.6735 45.2682 60.6567 45.4699C60.5914 47.855 60.1087 50.1327 59.3115 52.2555C60.3188 49.8965 60.9087 47.3173 60.9834 44.6092C61.0002 44.4085 61.0002 44.2068 61.0002 44.0061C61.0002 42.7403 60.891 41.4997 60.6651 40.302L60.6642 40.3001Z" fill="white"/>
</g>
<g opacity="0.3">
<path d="M56.7533 43.8839C56.7533 43.4395 56.7364 42.9952 56.6944 42.5592C56.5852 41.1263 56.2921 39.7345 55.8309 38.4275C53.5765 31.8734 47.3576 27.1714 40.0408 27.1714C32.724 27.1714 26.4966 31.8734 24.2413 38.4275C24.1246 38.758 24.0191 39.0941 23.9248 39.4339C24.0107 39.1351 24.1022 38.8392 24.2039 38.548C26.4583 31.9939 32.6773 27.2918 40.0025 27.2918C47.3277 27.2918 53.5383 31.9939 55.7927 38.548C56.2538 39.8558 56.5469 41.2467 56.6562 42.6796C56.6982 43.1156 56.715 43.5599 56.715 44.0043C56.715 45.6127 56.4863 47.1661 56.0634 48.6363C56.5096 47.1297 56.7523 45.5352 56.7523 43.8829L56.7533 43.8839Z" fill="#242424"/>
<path d="M41.826 64.8035C41.2397 64.8623 40.6442 64.8875 40.0411 64.8875C39.4381 64.8875 38.8425 64.8623 38.2563 64.8035C27.6872 63.9232 19.3473 55.2071 19.0541 44.4868C19.0373 44.2851 19.0373 44.0844 19.0373 43.8837C19.0373 42.6179 19.1466 41.3773 19.3725 40.1796C19.4808 39.5691 19.6161 38.9688 19.7757 38.3779C19.6012 39.008 19.4509 39.6475 19.3351 40.3C19.1092 41.4986 19 42.7392 19 44.0041C19 44.2048 19 44.4065 19.0168 44.6072C19.3099 55.3266 27.6498 64.0436 38.2189 64.9239C38.8052 64.9827 39.4007 65.0079 40.0038 65.0079C40.6068 65.0079 41.2024 64.9827 41.7886 64.9239C50.4011 64.207 57.5247 58.2848 60.0265 50.3165C57.4911 58.2242 50.3946 64.0903 41.826 64.8035Z" fill="#242424"/>
</g>
<path d="M71.4579 68.432H73.0539L76.3539 77H74.7459L73.9419 74.732H70.5219L69.7179 77H68.1699L71.4579 68.432ZM70.9299 73.592H73.5459L72.2619 69.908H72.2259L70.9299 73.592ZM77.0138 68.432H78.3818V77H77.0138V68.432ZM79.9083 68.432H81.2763V77H79.9083V68.432ZM82.6349 73.088H86.1269V74.384H82.6349V73.088ZM87.4669 68.432H88.8349V69.728H87.4669V68.432ZM87.4669 70.796H88.8349V77H87.4669V70.796ZM90.3255 70.796H91.6215V71.708L91.6455 71.732C91.8535 71.388 92.1255 71.12 92.4615 70.928C92.7975 70.728 93.1695 70.628 93.5775 70.628C94.2575 70.628 94.7935 70.804 95.1855 71.156C95.5775 71.508 95.7735 72.036 95.7735 72.74V77H94.4055V73.1C94.3895 72.612 94.2855 72.26 94.0935 72.044C93.9015 71.82 93.6015 71.708 93.1935 71.708C92.9615 71.708 92.7535 71.752 92.5695 71.84C92.3855 71.92 92.2295 72.036 92.1015 72.188C91.9735 72.332 91.8735 72.504 91.8015 72.704C91.7295 72.904 91.6935 73.116 91.6935 73.34V77H90.3255V70.796ZM97.0841 73.088H100.576V74.384H97.0841V73.088ZM104.724 77.168C104.228 77.168 103.784 77.088 103.392 76.928C103.008 76.76 102.68 76.532 102.408 76.244C102.144 75.956 101.94 75.612 101.796 75.212C101.66 74.812 101.592 74.372 101.592 73.892C101.592 73.42 101.66 72.984 101.796 72.584C101.94 72.184 102.144 71.84 102.408 71.552C102.68 71.264 103.008 71.04 103.392 70.88C103.784 70.712 104.228 70.628 104.724 70.628C105.22 70.628 105.66 70.712 106.044 70.88C106.436 71.04 106.764 71.264 107.028 71.552C107.3 71.84 107.504 72.184 107.64 72.584C107.784 72.984 107.856 73.42 107.856 73.892C107.856 74.372 107.784 74.812 107.64 75.212C107.504 75.612 107.3 75.956 107.028 76.244C106.764 76.532 106.436 76.76 106.044 76.928C105.66 77.088 105.22 77.168 104.724 77.168ZM104.724 76.088C105.028 76.088 105.292 76.024 105.516 75.896C105.74 75.768 105.924 75.6 106.068 75.392C106.212 75.184 106.316 74.952 106.38 74.696C106.452 74.432 106.488 74.164 106.488 73.892C106.488 73.628 106.452 73.364 106.38 73.1C106.316 72.836 106.212 72.604 106.068 72.404C105.924 72.196 105.74 72.028 105.516 71.9C105.292 71.772 105.028 71.708 104.724 71.708C104.42 71.708 104.156 71.772 103.932 71.9C103.708 72.028 103.524 72.196 103.38 72.404C103.236 72.604 103.128 72.836 103.056 73.1C102.992 73.364 102.96 73.628 102.96 73.892C102.96 74.164 102.992 74.432 103.056 74.696C103.128 74.952 103.236 75.184 103.38 75.392C103.524 75.6 103.708 75.768 103.932 75.896C104.156 76.024 104.42 76.088 104.724 76.088ZM108.993 70.796H110.289V71.708L110.313 71.732C110.521 71.388 110.793 71.12 111.129 70.928C111.465 70.728 111.837 70.628 112.245 70.628C112.925 70.628 113.461 70.804 113.853 71.156C114.245 71.508 114.441 72.036 114.441 72.74V77H113.073V73.1C113.057 72.612 112.953 72.26 112.761 72.044C112.569 71.82 112.269 71.708 111.861 71.708C111.629 71.708 111.421 71.752 111.237 71.84C111.053 71.92 110.897 72.036 110.769 72.188C110.641 72.332 110.541 72.504 110.469 72.704C110.397 72.904 110.361 73.116 110.361 73.34V77H108.993V70.796ZM120.144 73.352C120.128 73.136 120.08 72.928 120 72.728C119.928 72.528 119.824 72.356 119.688 72.212C119.56 72.06 119.4 71.94 119.208 71.852C119.024 71.756 118.816 71.708 118.584 71.708C118.344 71.708 118.124 71.752 117.924 71.84C117.732 71.92 117.564 72.036 117.42 72.188C117.284 72.332 117.172 72.504 117.084 72.704C117.004 72.904 116.96 73.12 116.952 73.352H120.144ZM116.952 74.252C116.952 74.492 116.984 74.724 117.048 74.948C117.12 75.172 117.224 75.368 117.36 75.536C117.496 75.704 117.668 75.84 117.876 75.944C118.084 76.04 118.332 76.088 118.62 76.088C119.02 76.088 119.34 76.004 119.58 75.836C119.828 75.66 120.012 75.4 120.132 75.056H121.428C121.356 75.392 121.232 75.692 121.056 75.956C120.88 76.22 120.668 76.444 120.42 76.628C120.172 76.804 119.892 76.936 119.58 77.024C119.276 77.12 118.956 77.168 118.62 77.168C118.132 77.168 117.7 77.088 117.324 76.928C116.948 76.768 116.628 76.544 116.364 76.256C116.108 75.968 115.912 75.624 115.776 75.224C115.648 74.824 115.584 74.384 115.584 73.904C115.584 73.464 115.652 73.048 115.788 72.656C115.932 72.256 116.132 71.908 116.388 71.612C116.652 71.308 116.968 71.068 117.336 70.892C117.704 70.716 118.12 70.628 118.584 70.628C119.072 70.628 119.508 70.732 119.892 70.94C120.284 71.14 120.608 71.408 120.864 71.744C121.12 72.08 121.304 72.468 121.416 72.908C121.536 73.34 121.568 73.788 121.512 74.252H116.952ZM125.928 70.796H127.224V71.636H127.248C127.44 71.276 127.708 71.02 128.052 70.868C128.396 70.708 128.768 70.628 129.168 70.628C129.656 70.628 130.08 70.716 130.44 70.892C130.808 71.06 131.112 71.296 131.352 71.6C131.592 71.896 131.772 72.244 131.892 72.644C132.012 73.044 132.072 73.472 132.072 73.928C132.072 74.344 132.016 74.748 131.904 75.14C131.8 75.532 131.636 75.88 131.412 76.184C131.196 76.48 130.92 76.72 130.584 76.904C130.248 77.08 129.852 77.168 129.396 77.168C129.196 77.168 128.996 77.148 128.796 77.108C128.596 77.076 128.404 77.02 128.22 76.94C128.036 76.86 127.864 76.76 127.704 76.64C127.552 76.512 127.424 76.364 127.32 76.196H127.296V79.292H125.928V70.796ZM130.704 73.904C130.704 73.624 130.668 73.352 130.596 73.088C130.524 72.824 130.416 72.592 130.272 72.392C130.128 72.184 129.948 72.02 129.732 71.9C129.516 71.772 129.268 71.708 128.988 71.708C128.412 71.708 127.976 71.908 127.68 72.308C127.392 72.708 127.248 73.24 127.248 73.904C127.248 74.216 127.284 74.508 127.356 74.78C127.436 75.044 127.552 75.272 127.704 75.464C127.856 75.656 128.036 75.808 128.244 75.92C128.46 76.032 128.708 76.088 128.988 76.088C129.3 76.088 129.564 76.024 129.78 75.896C129.996 75.768 130.172 75.604 130.308 75.404C130.452 75.196 130.552 74.964 130.608 74.708C130.672 74.444 130.704 74.176 130.704 73.904ZM133.264 68.432H134.632V77H133.264V68.432ZM141.318 75.62C141.318 75.788 141.338 75.908 141.378 75.98C141.426 76.052 141.514 76.088 141.642 76.088C141.682 76.088 141.73 76.088 141.786 76.088C141.842 76.088 141.906 76.08 141.978 76.064V77.012C141.93 77.028 141.866 77.044 141.786 77.06C141.714 77.084 141.638 77.104 141.558 77.12C141.478 77.136 141.398 77.148 141.318 77.156C141.238 77.164 141.17 77.168 141.114 77.168C140.834 77.168 140.602 77.112 140.418 77C140.234 76.888 140.114 76.692 140.058 76.412C139.786 76.676 139.45 76.868 139.05 76.988C138.658 77.108 138.278 77.168 137.91 77.168C137.63 77.168 137.362 77.128 137.106 77.048C136.85 76.976 136.622 76.868 136.422 76.724C136.23 76.572 136.074 76.384 135.954 76.16C135.842 75.928 135.786 75.66 135.786 75.356C135.786 74.972 135.854 74.66 135.99 74.42C136.134 74.18 136.318 73.992 136.542 73.856C136.774 73.72 137.03 73.624 137.31 73.568C137.598 73.504 137.886 73.456 138.174 73.424C138.422 73.376 138.658 73.344 138.882 73.328C139.106 73.304 139.302 73.268 139.47 73.22C139.646 73.172 139.782 73.1 139.878 73.004C139.982 72.9 140.034 72.748 140.034 72.548C140.034 72.372 139.99 72.228 139.902 72.116C139.822 72.004 139.718 71.92 139.59 71.864C139.47 71.8 139.334 71.76 139.182 71.744C139.03 71.72 138.886 71.708 138.75 71.708C138.366 71.708 138.05 71.788 137.802 71.948C137.554 72.108 137.414 72.356 137.382 72.692H136.014C136.038 72.292 136.134 71.96 136.302 71.696C136.47 71.432 136.682 71.22 136.938 71.06C137.202 70.9 137.498 70.788 137.826 70.724C138.154 70.66 138.49 70.628 138.834 70.628C139.138 70.628 139.438 70.66 139.734 70.724C140.03 70.788 140.294 70.892 140.526 71.036C140.766 71.18 140.958 71.368 141.102 71.6C141.246 71.824 141.318 72.1 141.318 72.428V75.62ZM139.95 73.892C139.742 74.028 139.486 74.112 139.182 74.144C138.878 74.168 138.574 74.208 138.27 74.264C138.126 74.288 137.986 74.324 137.85 74.372C137.714 74.412 137.594 74.472 137.49 74.552C137.386 74.624 137.302 74.724 137.238 74.852C137.182 74.972 137.154 75.12 137.154 75.296C137.154 75.448 137.198 75.576 137.286 75.68C137.374 75.784 137.478 75.868 137.598 75.932C137.726 75.988 137.862 76.028 138.006 76.052C138.158 76.076 138.294 76.088 138.414 76.088C138.566 76.088 138.73 76.068 138.906 76.028C139.082 75.988 139.246 75.92 139.398 75.824C139.558 75.728 139.69 75.608 139.794 75.464C139.898 75.312 139.95 75.128 139.95 74.912V73.892ZM146.978 72.872C146.922 72.488 146.766 72.2 146.51 72.008C146.262 71.808 145.946 71.708 145.562 71.708C145.386 71.708 145.198 71.74 144.998 71.804C144.798 71.86 144.614 71.972 144.446 72.14C144.278 72.3 144.138 72.528 144.026 72.824C143.914 73.112 143.858 73.492 143.858 73.964C143.858 74.22 143.886 74.476 143.942 74.732C144.006 74.988 144.102 75.216 144.23 75.416C144.366 75.616 144.538 75.78 144.746 75.908C144.954 76.028 145.206 76.088 145.502 76.088C145.902 76.088 146.23 75.964 146.486 75.716C146.75 75.468 146.914 75.12 146.978 74.672H148.346C148.218 75.48 147.91 76.1 147.422 76.532C146.942 76.956 146.302 77.168 145.502 77.168C145.014 77.168 144.582 77.088 144.206 76.928C143.838 76.76 143.526 76.536 143.27 76.256C143.014 75.968 142.818 75.628 142.682 75.236C142.554 74.844 142.49 74.42 142.49 73.964C142.49 73.5 142.554 73.064 142.682 72.656C142.81 72.248 143.002 71.896 143.258 71.6C143.514 71.296 143.83 71.06 144.206 70.892C144.59 70.716 145.038 70.628 145.55 70.628C145.91 70.628 146.25 70.676 146.57 70.772C146.898 70.86 147.186 70.996 147.434 71.18C147.69 71.364 147.898 71.596 148.058 71.876C148.218 72.156 148.314 72.488 148.346 72.872H146.978ZM153.718 73.352C153.702 73.136 153.654 72.928 153.574 72.728C153.502 72.528 153.398 72.356 153.262 72.212C153.134 72.06 152.974 71.94 152.782 71.852C152.598 71.756 152.39 71.708 152.158 71.708C151.918 71.708 151.698 71.752 151.498 71.84C151.306 71.92 151.138 72.036 150.994 72.188C150.858 72.332 150.746 72.504 150.658 72.704C150.578 72.904 150.534 73.12 150.526 73.352H153.718ZM150.526 74.252C150.526 74.492 150.558 74.724 150.622 74.948C150.694 75.172 150.798 75.368 150.934 75.536C151.07 75.704 151.242 75.84 151.45 75.944C151.658 76.04 151.906 76.088 152.194 76.088C152.594 76.088 152.914 76.004 153.154 75.836C153.402 75.66 153.586 75.4 153.706 75.056H155.002C154.93 75.392 154.806 75.692 154.63 75.956C154.454 76.22 154.242 76.444 153.994 76.628C153.746 76.804 153.466 76.936 153.154 77.024C152.85 77.12 152.53 77.168 152.194 77.168C151.706 77.168 151.274 77.088 150.898 76.928C150.522 76.768 150.202 76.544 149.938 76.256C149.682 75.968 149.486 75.624 149.35 75.224C149.222 74.824 149.158 74.384 149.158 73.904C149.158 73.464 149.226 73.048 149.362 72.656C149.506 72.256 149.706 71.908 149.962 71.612C150.226 71.308 150.542 71.068 150.91 70.892C151.278 70.716 151.694 70.628 152.158 70.628C152.646 70.628 153.082 70.732 153.466 70.94C153.858 71.14 154.182 71.408 154.438 71.744C154.694 72.08 154.878 72.468 154.99 72.908C155.11 73.34 155.142 73.788 155.086 74.252H150.526ZM156.234 75.38H157.902V77H156.234V75.38Z" fill="#DFE0E5"/>
</svg>
